<svg width="182" height="35" viewBox="0 0 182 35" fill="none" xmlns="http://www.w3.org/2000/svg">
<g clip-path="url(#clip0_8950_241)">
<path d="M23.0683 5.87898V1.65094C23.0683 1.13949 22.5035 0.828351 22.0709 1.10113L4.67289 11.196C3.63293 11.8524 3 12.9968 3 14.2264V22.5482C3 23.9803 4.54076 24.886 5.7917 24.187L18.0816 18.1689V19.309C18.0816 19.7885 17.8216 20.2317 17.4018 20.464L3.73309 27.2003C3.2813 27.4518 3 27.9292 3 28.4449V32.3895C3 32.8434 3.48162 33.1396 3.88866 32.9329L21.357 24.8775C22.4077 24.3426 23.0683 23.2642 23.0683 22.0879V12.351C23.0683 11.0021 21.6042 10.1582 20.4364 10.8359L7.98671 17.2141V15.944C7.98671 15.5242 8.2062 15.1342 8.56635 14.9169L22.1093 7.57958C22.7039 7.21943 23.0683 6.57584 23.0683 5.87898Z" fill="#003792"/>
<path d="M24.2466 1.65094V5.87898C24.2466 6.57584 24.611 7.21943 25.2056 7.57958L38.7762 14.9318C39.1193 15.1406 39.3303 15.5114 39.3303 15.9121V17.2141L26.8721 10.8337C25.7085 10.1582 24.2466 10.9978 24.2466 12.3447V25.4891C24.2466 26.6676 24.9072 27.7459 25.9578 28.2808L29.2333 29.9494V20.1976V19.5178V18.1689L41.5189 24.1785C42.772 24.8775 44.3149 23.9718 44.3149 22.5354V14.22C44.3149 12.9925 43.6862 11.8524 42.6484 11.2003L25.2439 1.10113C24.8113 0.828351 24.2466 1.13949 24.2466 1.65094Z" fill="#197DBC"/>
<path d="M29 21H24V4H29V21Z" fill="#0079BA"/>
<path d="M66.5831 22.7864V18.069C66.5831 17.4633 66.4691 17.0429 66.2339 16.7757C65.9916 16.5073 65.6591 16.3719 65.2362 16.3695C64.7707 16.3719 64.393 16.5488 64.1032 16.9004C63.8182 17.246 63.6792 17.8303 63.6792 18.689V22.7864H60.6079V10.8611H63.6792V15.6248L63.9678 15.3255C64.4144 14.8623 64.8574 14.5322 65.2968 14.335C65.7291 14.1379 66.2469 14.0381 66.8503 14.0357C67.7244 14.0381 68.4133 14.3029 68.9168 14.8303C69.4157 15.3611 69.6686 16.1949 69.6686 17.3066V22.7864H66.5831Z" fill="#11489E"/>
<path d="M66.5831 22.7864V18.069C66.5831 17.4633 66.4691 17.0429 66.2339 16.7757C65.9916 16.5073 65.6591 16.3719 65.2362 16.3695C64.7707 16.3719 64.393 16.5488 64.1032 16.9004C63.8182 17.246 63.6792 17.8303 63.6792 18.689V22.7864H60.6079V10.8611H63.6792V15.6248L63.9678 15.3255C64.4144 14.8623 64.8574 14.5322 65.2968 14.335C65.7291 14.1379 66.2469 14.0381 66.8503 14.0357C67.7244 14.0381 68.4133 14.3029 68.9168 14.8303C69.4157 15.3611 69.6686 16.1949 69.6686 17.3066V22.7864H66.5831Z" fill="#003792"/>
<path d="M55.2419 22.9967C53.211 22.9967 51.793 22.6083 51.0305 21.8387C50.2965 21.1083 49.8582 20.1712 49.73 19.056L53.0079 18.8493C53.0958 19.3885 53.2585 19.8102 53.4961 20.1142C53.9165 20.651 54.5186 20.9206 55.3025 20.923C55.8845 20.923 56.3382 20.7829 56.6636 20.5026C56.9937 20.2128 57.1588 19.8755 57.1588 19.4907C57.1588 19.1225 57.0009 18.7959 56.685 18.5109C56.3821 18.2401 55.7194 17.9942 54.6683 17.7626C53.04 17.3956 51.8678 16.9075 51.1872 16.3125C50.5067 15.721 50.1754 14.987 50.1754 14.0714C50.1754 13.4728 50.3488 12.9074 50.6956 12.3754C51.0423 11.8457 51.5673 11.4264 52.2704 11.1176C52.9794 10.8077 53.9699 10.6509 55.217 10.6509C56.742 10.6509 57.9178 10.9359 58.7052 11.4953C59.4427 12.0155 59.9059 12.8528 60.0805 13.9787L56.8346 14.1676C56.723 13.6521 56.5139 13.2661 56.2075 13.0096C55.8702 12.7364 55.4153 12.5998 54.8429 12.5998C54.3559 12.5975 53.9878 12.7032 53.7384 12.9169C53.4771 13.1355 53.3452 13.4063 53.3429 13.7293C53.3429 13.974 53.4545 14.1913 53.6778 14.3813C53.8773 14.5666 54.3084 14.7198 55.0246 14.8695C56.6529 15.2222 57.8358 15.5821 58.5413 15.9419C59.2301 16.2935 59.7289 16.7246 60.0377 17.2353C60.3489 17.7531 60.5045 18.3303 60.5045 18.9669C60.5045 19.7152 60.2955 20.4087 59.8774 21.0477C59.4617 21.6819 58.8786 22.1641 58.128 22.4943C57.3726 22.8292 56.4035 22.9967 55.2419 22.9967Z" fill="#11489E"/>
<path d="M55.2419 22.9967C53.211 22.9967 51.793 22.6083 51.0305 21.8387C50.2965 21.1083 49.8582 20.1712 49.73 19.056L53.0079 18.8493C53.0958 19.3885 53.2585 19.8102 53.4961 20.1142C53.9165 20.651 54.5186 20.9206 55.3025 20.923C55.8845 20.923 56.3382 20.7829 56.6636 20.5026C56.9937 20.2128 57.1588 19.8755 57.1588 19.4907C57.1588 19.1225 57.0009 18.7959 56.685 18.5109C56.3821 18.2401 55.7194 17.9942 54.6683 17.7626C53.04 17.3956 51.8678 16.9075 51.1872 16.3125C50.5067 15.721 50.1754 14.987 50.1754 14.0714C50.1754 13.4728 50.3488 12.9074 50.6956 12.3754C51.0423 11.8457 51.5673 11.4264 52.2704 11.1176C52.9794 10.8077 53.9699 10.6509 55.217 10.6509C56.742 10.6509 57.9178 10.9359 58.7052 11.4953C59.4427 12.0155 59.9059 12.8528 60.0805 13.9787L56.8346 14.1676C56.723 13.6521 56.5139 13.2661 56.2075 13.0096C55.8702 12.7364 55.4153 12.5998 54.8429 12.5998C54.3559 12.5975 53.9878 12.7032 53.7384 12.9169C53.4771 13.1355 53.3452 13.4063 53.3429 13.7293C53.3429 13.974 53.4545 14.1913 53.6778 14.3813C53.8773 14.5666 54.3084 14.7198 55.0246 14.8695C56.6529 15.2222 57.8358 15.5821 58.5413 15.9419C59.2301 16.2935 59.7289 16.7246 60.0377 17.2353C60.3489 17.7531 60.5045 18.3303 60.5045 18.9669C60.5045 19.7152 60.2955 20.4087 59.8774 21.0477C59.4617 21.6819 58.8786 22.1641 58.128 22.4943C57.3726 22.8292 56.4035 22.9967 55.2419 22.9967Z" fill="#003792"/>
<path fill-rule="evenodd" clip-rule="evenodd" d="M72.7718 22.9859C71.7576 22.9859 70.9903 22.7555 70.4701 22.2947C69.9535 21.8351 69.7041 21.2828 69.7041 20.6058C69.7041 19.968 69.8823 19.4585 70.2528 19.0559C70.6257 18.6474 71.3253 18.3409 72.3514 18.1367C73.627 17.8801 74.4643 17.6984 74.8491 17.5915C75.2196 17.4917 75.6258 17.3552 76.0676 17.1818L76.1781 17.139V17.025C76.1781 16.5594 76.0747 16.2257 75.8681 16.0238C75.6543 15.8243 75.3194 15.7245 74.8384 15.7245C74.2541 15.7245 73.8051 15.8231 73.4916 16.0202C73.2683 16.1651 73.0854 16.4134 72.9429 16.7649L70.0105 16.4585C70.1245 15.9977 70.2777 15.6319 70.4701 15.3611C70.6887 15.0547 71.0034 14.7886 71.4143 14.563C71.7113 14.3967 72.1234 14.2684 72.6507 14.1782C73.1923 14.0855 73.773 14.038 74.393 14.0356C75.4013 14.0356 76.2173 14.0926 76.823 14.2067C77.4121 14.3159 77.9014 14.5416 78.2909 14.8836C78.5593 15.1164 78.7731 15.449 78.9323 15.8813C79.0926 16.3267 79.171 16.74 79.171 17.1426V21.0654C79.171 21.4859 79.1983 21.8256 79.2529 22.0845C79.2981 22.284 79.3812 22.518 79.5024 22.7864H76.6698C76.5522 22.5762 76.5023 22.4479 76.4774 22.3802C76.4453 22.2769 76.4097 22.1058 76.3669 21.8422L76.317 21.5215L76.0854 21.746C75.6579 22.1593 75.2315 22.455 74.8063 22.6332C74.2244 22.8683 73.5462 22.9859 72.7718 22.9859ZM75.95 18.5785C75.4892 18.7447 75.007 18.892 74.5035 19.0203C73.7766 19.2127 73.3241 19.4051 73.1139 19.6046C72.8906 19.8231 72.779 20.0725 72.779 20.3528C72.779 21.012 73.6519 21.1795 74.051 21.1795C74.4571 21.1771 74.8384 21.0785 75.1947 20.8837C75.5486 20.6795 75.8016 20.4312 75.9536 20.1391C76.1033 19.854 76.1781 19.4835 76.1781 19.0274V18.4965L75.95 18.5785Z" fill="#11489E"/>
<path fill-rule="evenodd" clip-rule="evenodd" d="M72.7718 22.9859C71.7576 22.9859 70.9903 22.7555 70.4701 22.2947C69.9535 21.8351 69.7041 21.2828 69.7041 20.6058C69.7041 19.968 69.8823 19.4585 70.2528 19.0559C70.6257 18.6474 71.3253 18.3409 72.3514 18.1367C73.627 17.8801 74.4643 17.6984 74.8491 17.5915C75.2196 17.4917 75.6258 17.3552 76.0676 17.1818L76.1781 17.139V17.025C76.1781 16.5594 76.0747 16.2257 75.8681 16.0238C75.6543 15.8243 75.3194 15.7245 74.8384 15.7245C74.2541 15.7245 73.8051 15.8231 73.4916 16.0202C73.2683 16.1651 73.0854 16.4134 72.9429 16.7649L70.0105 16.4585C70.1245 15.9977 70.2777 15.6319 70.4701 15.3611C70.6887 15.0547 71.0034 14.7886 71.4143 14.563C71.7113 14.3967 72.1234 14.2684 72.6507 14.1782C73.1923 14.0855 73.773 14.038 74.393 14.0356C75.4013 14.0356 76.2173 14.0926 76.823 14.2067C77.4121 14.3159 77.9014 14.5416 78.2909 14.8836C78.5593 15.1164 78.7731 15.449 78.9323 15.8813C79.0926 16.3267 79.171 16.74 79.171 17.1426V21.0654C79.171 21.4859 79.1983 21.8256 79.2529 22.0845C79.2981 22.284 79.3812 22.518 79.5024 22.7864H76.6698C76.5522 22.5762 76.5023 22.4479 76.4774 22.3802C76.4453 22.2769 76.4097 22.1058 76.3669 21.8422L76.317 21.5215L76.0854 21.746C75.6579 22.1593 75.2315 22.455 74.8063 22.6332C74.2244 22.8683 73.5462 22.9859 72.7718 22.9859ZM75.95 18.5785C75.4892 18.7447 75.007 18.892 74.5035 19.0203C73.7766 19.2127 73.3241 19.4051 73.1139 19.6046C72.8906 19.8231 72.779 20.0725 72.779 20.3528C72.779 21.012 73.6519 21.1795 74.051 21.1795C74.4571 21.1771 74.8384 21.0785 75.1947 20.8837C75.5486 20.6795 75.8016 20.4312 75.9536 20.1391C76.1033 19.854 76.1781 19.4835 76.1781 19.0274V18.4965L75.95 18.5785Z" fill="#003792"/>
<path fill-rule="evenodd" clip-rule="evenodd" d="M139.454 22.9683C138.437 22.9683 137.669 22.7367 137.148 22.2735C136.635 21.8175 136.382 21.2652 136.382 20.5882C136.382 19.9469 136.564 19.441 136.935 19.0348C137.308 18.6262 138.007 18.3198 139.033 18.1155C140.305 17.859 141.146 17.6773 141.531 17.5739C141.901 17.4742 142.308 17.3376 142.749 17.1642L142.856 17.1214V17.0074C142.859 16.5395 142.757 16.2058 142.55 16.0062C142.341 15.8067 141.996 15.7069 141.517 15.7069C140.932 15.7069 140.485 15.8055 140.173 16.0027C139.95 16.1476 139.767 16.3958 139.625 16.7473L136.692 16.4373C136.806 15.9789 136.96 15.6143 137.152 15.3435C137.37 15.0371 137.685 14.7711 138.096 14.5454C138.391 14.3791 138.802 14.2508 139.329 14.1606C139.873 14.0656 140.455 14.0181 141.075 14.0181C142.083 14.0181 142.899 14.0751 143.505 14.1891C144.091 14.2984 144.58 14.524 144.969 14.8661C145.24 15.0988 145.454 15.4314 145.611 15.8637C145.771 16.3091 145.849 16.7224 145.849 17.125V21.0479C145.849 21.4683 145.878 21.808 145.935 22.0669C145.98 22.2664 146.062 22.5004 146.181 22.7688H143.352C143.234 22.555 143.184 22.4303 143.159 22.3626C143.127 22.2593 143.091 22.0883 143.049 21.8246L142.999 21.5004L142.767 21.7284C142.34 22.1417 141.913 22.4362 141.488 22.612C140.906 22.8496 140.228 22.9683 139.454 22.9683ZM142.632 18.5609C142.171 18.7272 141.689 18.8744 141.185 19.0027C140.458 19.1951 140.002 19.3839 139.796 19.587C139.572 19.8056 139.461 20.055 139.461 20.3353C139.461 20.9944 140.33 21.1583 140.733 21.1583C141.139 21.1583 141.519 21.0598 141.873 20.8626C142.227 20.6607 142.481 20.4137 142.635 20.1215C142.785 19.8364 142.859 19.4659 142.856 19.0098V18.479L142.632 18.5609Z" fill="#0079BA"/>
<path fill-rule="evenodd" clip-rule="evenodd" d="M80.1333 26.1677V14.2387H82.9837V15.867L83.283 15.4893C83.7129 14.9525 84.1001 14.5938 84.4445 14.4133C84.9172 14.1639 85.4398 14.038 86.0123 14.0356C87.1524 14.0356 88.0111 14.4596 88.6346 15.3326C88.9957 15.8409 89.2546 16.4264 89.4114 17.0891L89.5503 17.6984L89.7356 17.0998C89.947 16.4157 90.3175 15.8195 90.8472 15.3112C91.7273 14.4668 92.9352 14.0356 94.4352 14.0356C96.1561 14.0356 97.4709 14.538 98.3438 15.5285C98.7571 15.9989 99.0493 16.5404 99.2203 17.1533L99.3771 17.7198L99.5445 17.1568C99.7512 16.4514 100.128 15.8361 100.674 15.3112C101.554 14.4668 102.762 14.0356 104.266 14.0356C105.986 14.0356 107.298 14.538 108.171 15.5285C108.869 16.3231 109.225 17.3207 109.225 18.4894C109.225 19.8006 108.783 20.8873 107.918 21.7282C107.048 22.5619 105.823 22.9859 104.273 22.9859C102.894 22.9859 101.764 22.6332 100.916 21.9384C100.236 21.3719 99.7726 20.6735 99.5374 19.8647L99.3771 19.2982L99.2132 19.8647C99.0089 20.5773 98.6348 21.1985 98.0908 21.7282C97.2215 22.5619 95.9922 22.9859 94.4459 22.9859C93.067 22.9859 91.9375 22.6332 91.0895 21.9384C90.4506 21.4087 90.0076 20.7756 89.7605 20.0393L89.5646 19.455L89.4363 20.0571C89.2772 20.8006 88.985 21.4075 88.5598 21.8778C87.8864 22.6118 87.0277 22.9859 85.998 22.9859C85.4944 22.9859 85.0372 22.9016 84.6263 22.7329C84.2153 22.5619 83.8483 22.3101 83.5253 21.9776L83.2367 21.6783V26.1677H80.1333ZM104.315 16.0452C103.767 16.0452 103.313 16.2554 102.954 16.6758C102.605 17.0915 102.431 17.7091 102.431 18.5286C102.431 19.3647 102.605 19.987 102.954 20.3956C103.308 20.8137 103.754 21.0239 104.29 21.0263C104.832 21.0239 105.277 20.816 105.627 20.4027C105.972 19.9965 106.14 19.3695 106.14 18.4965C106.137 17.6865 105.965 17.0773 105.623 16.6687C105.271 16.253 104.836 16.0452 104.315 16.0452ZM94.4851 16.0452C93.9364 16.0452 93.4839 16.2554 93.1276 16.6758C92.7784 17.0915 92.6026 17.7091 92.6002 18.5286C92.6026 19.3647 92.7772 19.987 93.124 20.3956C93.4779 20.8137 93.9233 21.0239 94.4601 21.0263C95.0017 21.0239 95.4471 20.816 95.7963 20.4027C96.1419 19.9965 96.3093 19.3695 96.3093 18.4965C96.3093 17.6865 96.1383 17.0773 95.7963 16.6687C95.4423 16.253 95.0053 16.0452 94.4851 16.0452ZM84.9006 16.2019C84.4137 16.2043 84.0087 16.3943 83.6856 16.772C83.3649 17.1461 83.2117 17.7233 83.2117 18.5393C83.2117 19.2851 83.3733 19.8433 83.6963 20.2139C84.0241 20.5916 84.4386 20.7816 84.9398 20.784C85.3911 20.7816 85.7676 20.5963 86.0693 20.2281C86.365 19.8683 86.5075 19.2911 86.5075 18.4645C86.5075 17.7043 86.3555 17.1402 86.0515 16.772C85.7403 16.392 85.3567 16.2019 84.9006 16.2019Z" fill="#11489E"/>
<path fill-rule="evenodd" clip-rule="evenodd" d="M80.1333 26.1677V14.2387H82.9837V15.867L83.283 15.4893C83.7129 14.9525 84.1001 14.5938 84.4445 14.4133C84.9172 14.1639 85.4398 14.038 86.0123 14.0356C87.1524 14.0356 88.0111 14.4596 88.6346 15.3326C88.9957 15.8409 89.2546 16.4264 89.4114 17.0891L89.5503 17.6984L89.7356 17.0998C89.947 16.4157 90.3175 15.8195 90.8472 15.3112C91.7273 14.4668 92.9352 14.0356 94.4352 14.0356C96.1561 14.0356 97.4709 14.538 98.3438 15.5285C98.7571 15.9989 99.0493 16.5404 99.2203 17.1533L99.3771 17.7198L99.5445 17.1568C99.7512 16.4514 100.128 15.8361 100.674 15.3112C101.554 14.4668 102.762 14.0356 104.266 14.0356C105.986 14.0356 107.298 14.538 108.171 15.5285C108.869 16.3231 109.225 17.3207 109.225 18.4894C109.225 19.8006 108.783 20.8873 107.918 21.7282C107.048 22.5619 105.823 22.9859 104.273 22.9859C102.894 22.9859 101.764 22.6332 100.916 21.9384C100.236 21.3719 99.7726 20.6735 99.5374 19.8647L99.3771 19.2982L99.2132 19.8647C99.0089 20.5773 98.6348 21.1985 98.0908 21.7282C97.2215 22.5619 95.9922 22.9859 94.4459 22.9859C93.067 22.9859 91.9375 22.6332 91.0895 21.9384C90.4506 21.4087 90.0076 20.7756 89.7605 20.0393L89.5646 19.455L89.4363 20.0571C89.2772 20.8006 88.985 21.4075 88.5598 21.8778C87.8864 22.6118 87.0277 22.9859 85.998 22.9859C85.4944 22.9859 85.0372 22.9016 84.6263 22.7329C84.2153 22.5619 83.8483 22.3101 83.5253 21.9776L83.2367 21.6783V26.1677H80.1333ZM104.315 16.0452C103.767 16.0452 103.313 16.2554 102.954 16.6758C102.605 17.0915 102.431 17.7091 102.431 18.5286C102.431 19.3647 102.605 19.987 102.954 20.3956C103.308 20.8137 103.754 21.0239 104.29 21.0263C104.832 21.0239 105.277 20.816 105.627 20.4027C105.972 19.9965 106.14 19.3695 106.14 18.4965C106.137 17.6865 105.965 17.0773 105.623 16.6687C105.271 16.253 104.836 16.0452 104.315 16.0452ZM94.4851 16.0452C93.9364 16.0452 93.4839 16.2554 93.1276 16.6758C92.7784 17.0915 92.6026 17.7091 92.6002 18.5286C92.6026 19.3647 92.7772 19.987 93.124 20.3956C93.4779 20.8137 93.9233 21.0239 94.4601 21.0263C95.0017 21.0239 95.4471 20.816 95.7963 20.4027C96.1419 19.9965 96.3093 19.3695 96.3093 18.4965C96.3093 17.6865 96.1383 17.0773 95.7963 16.6687C95.4423 16.253 95.0053 16.0452 94.4851 16.0452ZM84.9006 16.2019C84.4137 16.2043 84.0087 16.3943 83.6856 16.772C83.3649 17.1461 83.2117 17.7233 83.2117 18.5393C83.2117 19.2851 83.3733 19.8433 83.6963 20.2139C84.0241 20.5916 84.4386 20.7816 84.9398 20.784C85.3911 20.7816 85.7676 20.5963 86.0693 20.2281C86.365 19.8683 86.5075 19.2911 86.5075 18.4645C86.5075 17.7043 86.3555 17.1402 86.0515 16.772C85.7403 16.392 85.3567 16.2019 84.9006 16.2019Z" fill="#003792"/>
<path d="M115.995 12.8631V11.0638C115.995 10.9498 116.087 10.8572 116.198 10.8572H118.841C118.97 10.8572 119.073 10.9605 119.073 11.0888V12.8631H115.995Z" fill="#003792"/>
<path d="M119.75 12.8421V11.0784C119.75 10.9573 119.846 10.8611 119.971 10.8611H122.608C122.725 10.8611 122.818 10.9537 122.818 11.0713V12.8421H119.75Z" fill="#003792"/>
<path d="M119.75 14.2388H122.818V22.7864H119.75V14.2388Z" fill="#11489E"/>
<path d="M119.75 14.2388H122.818V22.7864H119.75V14.2388Z" fill="#003792"/>
<path d="M150.083 10.8394H153.161V22.7683H150.083V10.8394Z" fill="#0079BA"/>
<path d="M146.309 10.8394H149.388V22.7683H146.309V10.8394Z" fill="#0079BA"/>
<path fill-rule="evenodd" clip-rule="evenodd" d="M126.876 22.7683V10.8394H133.008C134.326 10.8394 135.324 11.1529 135.972 11.7729C136.617 12.3893 136.945 13.2836 136.945 14.4344C136.945 15.6209 136.585 16.558 135.88 17.2171C135.171 17.8798 134.063 18.2183 132.587 18.2183H130.346V22.7683H126.876ZM130.343 16.0698H131.44C132.22 16.0698 132.758 15.9309 133.09 15.6494C133.422 15.3596 133.59 14.9926 133.592 14.5484C133.59 14.1161 133.445 13.7503 133.158 13.451C132.869 13.1446 132.356 12.995 131.593 12.995H130.343V16.0698Z" fill="#0079BA"/>
<path d="M169.29 22.7688V18.0514C169.29 17.4457 169.176 17.0217 168.94 16.758C168.698 16.4872 168.366 16.3518 167.943 16.3518C167.477 16.3542 167.1 16.5312 166.81 16.8827C166.525 17.2283 166.386 17.8127 166.386 18.6713V22.7688H163.314V14.2212H166.151V15.9777L166.45 15.6036C166.908 15.0359 167.37 14.6285 167.836 14.3815C168.299 14.1416 168.864 14.0204 169.532 14.0181C170.423 14.0204 171.12 14.2841 171.623 14.8091C172.122 15.3328 172.375 16.1666 172.375 17.2889V22.7688H169.29Z" fill="#0079BA"/>
<path d="M176.69 14.2209H179.762V22.7686H176.69V14.2209Z" fill="#0079BA"/>
<path fill-rule="evenodd" clip-rule="evenodd" d="M158.266 22.9683C156.887 22.9683 155.758 22.6156 154.91 21.9208C153.876 21.0621 153.349 19.9184 153.349 18.5181C153.349 17.2176 153.795 16.1309 154.671 15.2901C155.548 14.4456 156.755 14.0181 158.259 14.0181C159.98 14.0181 161.295 14.5205 162.164 15.511C162.866 16.3055 163.219 17.3032 163.219 18.4718C163.219 19.783 162.78 20.8697 161.911 21.707C161.042 22.5443 159.816 22.9683 158.266 22.9683ZM158.309 16.0276C157.763 16.0276 157.31 16.2378 156.951 16.6583C156.602 17.0739 156.428 17.6915 156.428 18.511C156.428 19.3471 156.601 19.9695 156.948 20.378C157.302 20.7961 157.747 21.0063 158.284 21.0087C158.828 21.0063 159.274 20.7985 159.624 20.3851C159.966 19.9754 160.137 19.3519 160.137 18.479C160.134 17.669 159.962 17.0597 159.62 16.6511C159.266 16.2354 158.829 16.0276 158.309 16.0276Z" fill="#0079BA"/>
<path d="M176.69 12.8239V11.0994C176.69 10.9569 176.808 10.8394 176.947 10.8394H179.544C179.662 10.8394 179.762 10.9391 179.762 11.0567V12.8239H176.69Z" fill="#0079BA"/>
<path d="M173.238 26.3743C172.625 26.3743 171.874 26.2888 170.986 26.1178L171.431 23.9693C171.635 24.0073 171.792 24.0263 171.902 24.0263C172.246 24.0239 172.511 23.9028 172.696 23.6629C172.871 23.4349 172.956 23.0144 172.956 22.3767V14.2209H176.035V22.6688C176.032 23.7448 175.955 24.505 175.803 24.9491C175.656 25.372 175.384 25.714 174.987 25.9753C174.586 26.2413 174.003 26.3743 173.238 26.3743Z" fill="#0079BA"/>
<path d="M172.957 12.8453V11.0567C172.957 10.9391 173.053 10.8394 173.174 10.8394H175.818C175.935 10.8394 176.035 10.9391 176.035 11.0567V12.8453H172.957Z" fill="#0079BA"/>
<path d="M115.995 14.2388V14.5202V14.7269V15.0975V22.3981C115.995 23.0323 115.909 23.4527 115.735 23.6807C115.549 23.923 115.285 24.0442 114.94 24.0442C114.831 24.0442 114.674 24.0263 114.47 23.9907L114.024 26.1356C114.913 26.3067 115.663 26.3934 116.276 26.3957C117.041 26.3934 117.624 26.2592 118.026 25.9931C118.422 25.7318 118.694 25.3898 118.842 24.967C118.994 24.5228 119.071 23.7627 119.073 22.6867V14.2388H115.995Z" fill="#11489E"/>
<path d="M115.995 14.2388V14.5202V14.7269V15.0975V22.3981C115.995 23.0323 115.909 23.4527 115.735 23.6807C115.549 23.923 115.285 24.0442 114.94 24.0442C114.831 24.0442 114.674 24.0263 114.47 23.9907L114.024 26.1356C114.913 26.3067 115.663 26.3934 116.276 26.3957C117.041 26.3934 117.624 26.2592 118.026 25.9931C118.422 25.7318 118.694 25.3898 118.842 24.967C118.994 24.5228 119.071 23.7627 119.073 22.6867V14.2388H115.995Z" fill="#003792"/>
<path d="M115.917 14.4062C115.414 14.1675 114.901 14.0356 114.484 14.0356C114.043 14.0356 113.373 14.1532 112.778 14.8801C112.336 15.4145 112.154 16.0452 112.154 16.0452V14.2387H109.304V22.7864H112.389V19.9787C112.389 18.5072 112.571 17.5238 112.945 16.9716C113.225 16.5559 113.619 16.3468 114.124 16.3445C114.35 16.3445 114.638 16.4122 114.987 16.5476L115.917 14.4062Z" fill="#11489E"/>
<path d="M115.917 14.4062C115.414 14.1675 114.901 14.0356 114.484 14.0356C114.043 14.0356 113.373 14.1532 112.778 14.8801C112.336 15.4145 112.154 16.0452 112.154 16.0452V14.2387H109.304V22.7864H112.389V19.9787C112.389 18.5072 112.571 17.5238 112.945 16.9716C113.225 16.5559 113.619 16.3468 114.124 16.3445C114.35 16.3445 114.638 16.4122 114.987 16.5476L115.917 14.4062Z" fill="#003792"/>
</g>
<defs>
<clipPath id="clip0_8950_241">
<rect width="182" height="35" fill="white"/>
</clipPath>
</defs>
</svg>
