<?xml version="1.0" encoding="utf-8"?>
<!-- Generator: Adobe Illustrator 27.6.1, SVG Export Plug-In . SVG Version: 6.00 Build 0)  -->
<svg version="1.1" id="Calque_1" xmlns="http://www.w3.org/2000/svg" xmlns:xlink="http://www.w3.org/1999/xlink" x="0px" y="0px"
	 viewBox="0 0 169 44" style="enable-background:new 0 0 169 44;" xml:space="preserve">
<style type="text/css">
	.st0{fill:#A2C617;}
	.st1{fill:#1A1D56;}
</style>
<g>
	<g>
		<path class="st0" d="M48.32,18.68c1.75,0,3.17,1.42,3.17,3.17c0,1.75-1.42,3.17-3.17,3.17c-0.24,0-0.74-0.09-0.75-0.09
			c-0.16-0.04-0.9-0.19-1.42,0.02c-0.71,0.29-1.21,0.98-1.21,1.79c0,0.78,0.57,1.56,1.19,1.78c0.61,0.23,1.51,0.36,2.19,0.36
			c3.88,0,7.04-3.16,7.04-7.04c0-3.88-3.16-7.04-7.04-7.04c-1.94,0-3.81,0.81-5.13,2.22c0,0-12.43,12.78-15.37,15.3
			c-2.61,2.24-5.76,3.66-9.47,3.66c-3.78,0-7.32-1.47-9.99-4.14c-2.67-2.67-4.14-6.22-4.14-9.99c0-7.79,6.34-14.13,14.14-14.13
			c1.51,0,2.53,0.28,2.93,0.3c0.97,0.05,1.77-0.75,1.77-1.67c0-0.81-0.59-1.53-1.38-1.67c0,0-1.52-0.32-3.32-0.32
			c-9.65,0-17.49,7.85-17.49,17.49c0,4.67,1.82,9.06,5.12,12.37c3.3,3.3,7.7,5.13,12.37,5.13c4.53,0,8.8-1.72,12.08-4.85
			l15.64-14.85C46.7,19.05,47.33,18.68,48.32,18.68z M48.32,31.93c-1.59,0-2.27-0.33-2.82-0.33c-1.07,0-1.93,0.87-1.93,1.94
			c0,0.83,0.57,1.61,1.32,1.83c0.75,0.23,2.1,0.44,3.44,0.44c7.69,0,13.95-6.26,13.95-13.95c0-7.69-6.26-13.95-13.95-13.95
			c-3.76,0-7.41,1.55-10.03,4.27l-14.04,15.6c-1.58,1.58-3.68,2.44-5.9,2.44c-4.61,0-8.36-3.75-8.36-8.36
			c0-4.61,3.75-8.36,8.37-8.36c1.08,0,1.41,0.2,1.87,0.2c0.8,0,1.63-0.69,1.63-1.68c0-0.8-0.56-1.51-1.31-1.68
			c-0.6-0.13-1.49-0.21-2.2-0.21c-6.46,0-11.72,5.26-11.72,11.72c0,6.46,5.26,11.72,11.72,11.72c5.31,0,8.25-3.4,8.71-3.89
			l13.71-14.51c1.92-2.17,4.67-3.41,7.55-3.41c5.56,0,10.08,4.52,10.08,10.08C58.4,27.41,53.88,31.93,48.32,31.93z M63.07,7.11
			C59.13,3.17,53.89,1,48.32,1C41.7,1,35.4,4.21,31.48,9.57c0,0-10.56,13.21-11.08,13.87c-0.52,0.66-1.29,1.01-2.05,1.01
			c-1.43,0-2.59-1.16-2.59-2.59c0-1.43,1.16-2.59,2.59-2.59c0.27,0,0.47,0.03,0.69,0.03c0.91,0,1.64-0.78,1.64-1.67
			c0-0.7-0.48-1.74-2.13-1.74c-3.52,0-6.16,2.7-6.16,5.98c0,3.28,2.67,5.95,5.95,5.95c1.67,0,3.26-0.7,4.39-1.94l12.17-14.42
			c3.25-4.18,8.14-6.58,13.41-6.58c4.54,0,8.8,1.77,12.01,4.97c3.21,3.21,4.97,7.47,4.97,12.01c0,9.36-7.62,16.98-16.99,16.98
			c-2.66,0-3.53-0.48-4.18-0.48c-1.1,0-1.98,0.87-1.98,1.95c0,0.81,0.48,1.5,1.26,1.81c0.67,0.27,3.26,0.59,4.9,0.59
			c11.5,0,20.85-9.35,20.85-20.85C69.17,16.28,67.01,11.05,63.07,7.11z"/>
		<path class="st1" d="M92.53,21.49l-11.05-4.05c-0.56-0.21-0.95-0.75-0.95-1.38c0-0.81,0.66-1.47,1.48-1.47h12v-4.34H81.88
			c-3.21,0-5.81,2.6-5.81,5.81c0,2.48,1.55,4.59,3.74,5.43l11.05,4.05c0.56,0.2,0.95,0.75,0.95,1.38c0,0.81-0.66,1.47-1.48,1.47
			H76.05v4.34h14.41c3.21,0,5.93-2.6,5.93-5.81C96.39,24.45,94.71,22.33,92.53,21.49z M153.69,28.4c-0.82,0-1.48-0.66-1.48-1.47
			c0-0.63,0.39-1.18,0.95-1.38l11.05-4.05c2.18-0.84,3.74-2.95,3.74-5.43c0-3.21-2.6-5.81-5.81-5.81h-12.12v4.34h12
			c0.81,0,1.48,0.66,1.48,1.47c0,0.63-0.4,1.17-0.95,1.38l-11.05,4.05c-2.18,0.84-3.86,2.95-3.86,5.43c0,3.21,2.72,5.81,5.93,5.81
			h14.4V28.4H153.69z M114.5,23.68c0.01,3.41-2.05,5.16-5.21,5.16c-3.16,0-5.22-1.76-5.21-5.16V10.26h-4.72v13.74
			c0,5.02,3.64,9.04,9.93,9.04c6.3,0,9.93-4.01,9.93-9.04V10.26h-4.72V23.68z M134.39,9.96c-6.48,0-11.61,5.17-11.61,11.54
			c0,6.37,5.13,11.54,11.61,11.54c4.01,0,7.28-1.66,9.64-4.49l-3.61-2.57c-1.64,1.91-3.63,2.99-6.03,2.99
			c-3.34,0-6.14-2.5-6.84-5.84h18.1c0.07-0.51,0.12-1.1,0.12-1.62C145.76,15.13,140.88,9.96,134.39,9.96z M127.66,19.39
			c0.85-3.11,3.54-5.39,6.73-5.39c3.19,0,5.88,2.27,6.73,5.39H127.66z"/>
	</g>
</g>
</svg>
